<?xml version="1.0" standalone="no"?>
<!DOCTYPE svg PUBLIC "-//W3C//DTD SVG 20010904//EN"
 "http://www.w3.org/TR/2001/REC-SVG-20010904/DTD/svg10.dtd">
<svg version="1.0" xmlns="http://www.w3.org/2000/svg"
 width="16.000000pt" height="16.000000pt" viewBox="0 0 16.000000 16.000000"
 preserveAspectRatio="xMidYMid meet">
<metadata>
Created by potrace 1.11, written by Peter Selinger 2001-2013
</metadata>
<g transform="translate(0.000000,16.000000) scale(0.001481,-0.001481)"
fill="#000000" stroke="none">
<path d="M0 5400 l0 -5400 5400 0 5400 0 0 5400 0 5400 -5400 0 -5400 0 0
-5400z m3140 2565 c320 -41 645 -152 917 -313 238 -141 293 -189 833 -728
l505 -504 -212 -212 -213 -213 -477 476 c-263 262 -505 496 -538 521 -287 217
-593 340 -937 377 -54 6 -118 11 -143 11 l-45 0 0 -308 0 -309 -117 -12 c-557
-60 -995 -482 -1069 -1031 -18 -137 -18 -244 2 -354 45 -258 153 -466 338
-652 188 -187 402 -298 653 -338 241 -38 511 2 725 110 158 79 209 124 693
606 l471 468 434 0 435 0 690 689 c723 722 782 775 982 889 244 140 499 214
816 237 l87 7 0 305 0 306 113 -7 c627 -39 1170 -280 1601 -712 429 -429 669
-963 711 -1584 8 -121 -9 -394 -35 -541 -122 -705 -543 -1314 -1161 -1680
-332 -197 -686 -303 -1098 -330 -572 -37 -1127 132 -1606 490 -71 53 -246 220
-597 570 l-498 495 -498 -495 c-350 -348 -527 -517 -598 -570 -401 -301 -862
-469 -1353 -496 l-121 -6 0 306 0 305 -87 7 c-140 10 -291 33 -389 60 -658
179 -1166 717 -1304 1383 -11 53 -25 159 -32 235 l-12 137 -305 0 -304 0 7
113 c39 628 279 1169 712 1601 427 427 936 657 1574 710 76 6 339 -5 450 -19z"/>
<path d="M7825 6753 c-11 -2 -54 -10 -96 -18 -101 -20 -186 -49 -282 -96 -168
-83 -202 -112 -697 -606 l-476 -473 471 -468 c498 -496 541 -534 716 -617 108
-51 257 -91 392 -106 l117 -12 0 -310 0 -310 101 7 c583 38 1092 328 1410 805
187 279 308 656 309 959 l0 52 -309 0 -309 0 -7 73 c-30 321 -138 560 -350
772 -190 189 -423 305 -685 341 -99 13 -260 17 -305 7z"/>
<path d="M5890 4660 c0 -5 5 -10 10 -10 6 0 10 5 10 10 0 6 -4 10 -10 10 -5 0
-10 -4 -10 -10z"/>
</g>
</svg>
