<?xml version="1.0" standalone="no"?>
<!DOCTYPE svg PUBLIC "-//W3C//DTD SVG 20010904//EN"
 "http://www.w3.org/TR/2001/REC-SVG-20010904/DTD/svg10.dtd">
<svg version="1.0" xmlns="http://www.w3.org/2000/svg"
 width="700.000000pt" height="700.000000pt" viewBox="0 0 700.000000 700.000000"
 preserveAspectRatio="xMidYMid meet">
<metadata>
Created by potrace 1.11, written by Peter Selinger 2001-2013
</metadata>
<g transform="translate(0.000000,700.000000) scale(0.100000,-0.100000)"
fill="#000000" stroke="none">
<path d="M0 3500 l0 -3500 3500 0 3500 0 0 3500 0 3500 -3500 0 -3500 0 0
-3500z m3651 2470 c163 -31 296 -152 356 -322 17 -50 18 -113 18 -1283 l0
-1230 -22 -57 c-76 -199 -242 -318 -445 -318 -210 0 -391 139 -449 345 -12 42
-14 252 -14 1275 l0 1225 22 57 c87 229 301 352 534 308z m-2050 -1555 c145
-42 269 -167 314 -318 13 -44 15 -221 15 -1327 0 -1252 0 -1278 -20 -1335 -64
-186 -209 -301 -405 -321 -229 -23 -453 147 -495 377 -7 37 -10 486 -8 1320
l3 1264 23 58 c52 128 164 236 287 276 98 33 188 35 286 6z m4152 0 c108 -32
214 -119 270 -219 59 -107 57 -49 57 -1429 0 -1229 -1 -1267 -20 -1328 -24
-78 -62 -140 -122 -197 -257 -248 -682 -124 -773 225 -23 86 -23 2530 0 2616
47 182 189 313 375 347 55 10 152 3 213 -15z"/>
</g>
</svg>
