<?xml version="1.0" encoding="utf-8"?>
<!-- Generator: Adobe Illustrator 19.0.0, SVG Export Plug-In . SVG Version: 6.00 Build 0)  -->
<svg version="1.1" id="Layer_1" xmlns="http://www.w3.org/2000/svg" xmlns:xlink="http://www.w3.org/1999/xlink" x="0px" y="0px"
	 viewBox="0 0 150 50" style="enable-background:new 0 0 150 50;" xml:space="preserve">
<style type="text/css">
	.st0{fill:#14CC33;}
	.st1{fill:#FFFFFF;}
</style>
<g id="XMLID_1_">
	<rect id="XMLID_2_" x="2.5" y="5.9" class="st0" width="38.2" height="38.2"/>
	<path id="XMLID_8_" class="st1" d="M8.6,39.8L8.6,39.8c-1.6,0-2.9-1.3-2.9-2.9v-15c0-1.6,1.3-2.9,2.9-2.9h0c1.6,0,2.9,1.3,2.9,2.9
		v15C11.5,38.5,10.2,39.8,8.6,39.8z"/>
	<path id="XMLID_10_" class="st1" d="M34.7,39.8L34.7,39.8c-1.6,0-2.9-1.3-2.9-2.9v-15c0-1.6,1.3-2.9,2.9-2.9h0
		c1.6,0,2.9,1.3,2.9,2.9v15C37.6,38.5,36.3,39.8,34.7,39.8z"/>
	<path id="XMLID_11_" class="st1" d="M21.7,29.5L21.7,29.5c-1.6,0-2.9-1.3-2.9-2.9V12.2c0-1.6,1.3-2.9,2.9-2.9h0
		c1.6,0,2.9,1.3,2.9,2.9v14.4C24.7,28.2,23.4,29.5,21.7,29.5z"/>
</g>
<g id="XMLID_4_">
	<path id="XMLID_7_" class="st1" d="M44.1,19.6h1.7l2,5.4c0.1,0.4,0.2,0.7,0.3,0.9c0.1,0.3,0.2,0.5,0.2,0.8c0.2-0.6,0.3-1.1,0.5-1.7
		c0-0.1,0-0.1,0.1-0.1l2.2-5.7l2.3,5.8c0.1,0.3,0.2,0.6,0.3,0.8c0.1,0.3,0.2,0.6,0.3,0.9c0-0.2,0.1-0.5,0.2-0.7
		c0.1-0.3,0.2-0.6,0.3-0.9l2-5.5h1.7l-4.2,11.1l-2.4-6.1c-0.1-0.3-0.2-0.5-0.3-0.8s-0.2-0.5-0.2-0.7c-0.1,0.3-0.2,0.6-0.2,0.8
		c-0.1,0.3-0.2,0.5-0.3,0.7l-2.4,6.1L44.1,19.6z"/>
	<path id="XMLID_12_" class="st1" d="M71.1,30.3l-1.2-2.8h-4.2l-1.2,2.8h-1.8l5.2-11.1l5.2,11.1H71.1z M66.3,26.1h3l-1.1-2.4
		c-0.1-0.2-0.1-0.3-0.2-0.5c-0.1-0.2-0.1-0.4-0.2-0.7c-0.1,0.2-0.1,0.5-0.2,0.7c-0.1,0.2-0.1,0.4-0.2,0.6L66.3,26.1z"/>
	<path id="XMLID_15_" class="st1" d="M80.1,25.5v4.8h-1.6V19.6h2.4c0.7,0,1.3,0,1.7,0.1c0.4,0.1,0.7,0.2,1,0.5
		c0.3,0.3,0.6,0.6,0.8,1c0.2,0.4,0.3,0.9,0.3,1.3c0,0.9-0.2,1.5-0.6,2c-0.4,0.5-1,0.8-1.8,0.9l3.7,4.9h-2l-3.6-4.8H80.1z M80.2,24.2
		h0.3c0.9,0,1.5-0.1,1.8-0.3s0.5-0.6,0.5-1.1c0-0.6-0.2-1-0.5-1.2c-0.3-0.2-0.9-0.4-1.8-0.4h-0.3V24.2z"/>
	<path id="XMLID_18_" class="st1" d="M100.2,25c0-0.1-0.1-0.3-0.1-0.7c0-0.3-0.1-0.6-0.1-0.8c0,0.2-0.1,0.5-0.2,0.7
		c-0.1,0.2-0.2,0.5-0.3,0.7l-2.8,5.7l-2.8-5.8c-0.1-0.2-0.2-0.5-0.3-0.7c-0.1-0.2-0.2-0.4-0.2-0.7c0,0.2,0,0.5-0.1,0.7
		c0,0.2-0.1,0.5-0.1,0.8L92,30.3h-1.6l2.5-11.2l3.2,6.8c0,0.1,0.1,0.3,0.2,0.5c0.1,0.2,0.2,0.6,0.4,0.9c0.1-0.3,0.3-0.7,0.5-1.2
		c0.1-0.1,0.1-0.2,0.1-0.3l3.1-6.8l2.6,11.2h-1.6L100.2,25z"/>
	<path id="XMLID_20_" class="st1" d="M108.9,30.3V19.6h1.7v4h5.3v-4h1.7v10.7h-1.7v-5.2h-5.3v5.2H108.9z"/>
	<path id="XMLID_22_" class="st1" d="M124.6,19.6h1.7v6.5c0,1,0.2,1.7,0.7,2.2c0.4,0.5,1.1,0.7,2,0.7c0.9,0,1.5-0.2,2-0.7
		c0.4-0.5,0.7-1.2,0.7-2.2v-6.5h1.7v6.7c0,1.5-0.4,2.5-1.1,3.3c-0.7,0.7-1.8,1.1-3.3,1.1s-2.6-0.4-3.3-1.1s-1.1-1.8-1.1-3.3V19.6z"
		/>
	<path id="XMLID_24_" class="st1" d="M143.8,21.1v9.2H142v-9.2h-2.8v-1.5h7.4v1.5H143.8z"/>
</g>
<g id="XMLID_6_">
</g>
<g id="XMLID_26_">
</g>
<g id="XMLID_27_">
</g>
<g id="XMLID_28_">
</g>
<g id="XMLID_29_">
</g>
<g id="XMLID_30_">
</g>
</svg>
