<?xml version="1.0" encoding="utf-8"?>
<!-- Generator: Adobe Illustrator 19.0.0, SVG Export Plug-In . SVG Version: 6.00 Build 0)  -->
<svg version="1.1" id="Layer_1" xmlns="http://www.w3.org/2000/svg" xmlns:xlink="http://www.w3.org/1999/xlink" x="0px" y="0px"
	 viewBox="0 0 200 100" style="enable-background:new 0 0 200 100;" xml:space="preserve">
<style type="text/css">
	.st0{fill:#FBD00D;}
	.st1{fill:#FFFFFF;}
</style>
<rect x="102.7" y="34.3" class="st0" width="25" height="25"/>
<g>
	<path d="M35-26v-8.6h2.2c0.6,0,1.1,0,1.4,0.1s0.5,0.2,0.8,0.3c0.3,0.2,0.5,0.5,0.6,0.8s0.2,0.7,0.2,1c0,0.5-0.1,0.8-0.3,1.1
		s-0.5,0.5-0.9,0.6c0.5,0.1,0.9,0.3,1.2,0.7s0.4,0.9,0.4,1.4c0,0.3-0.1,0.7-0.2,1s-0.3,0.6-0.5,0.8c-0.2,0.2-0.5,0.4-0.9,0.5
		S38-26,37.2-26H35z M36.3-31h0.5c0.7,0,1.1-0.1,1.4-0.3s0.4-0.5,0.4-0.9c0-0.5-0.1-0.8-0.4-1s-0.7-0.3-1.4-0.3h-0.5V-31z
		 M36.3-27.2h0.5c0.5,0,0.9,0,1.1-0.1s0.4-0.1,0.6-0.2c0.2-0.1,0.3-0.3,0.4-0.5s0.1-0.4,0.1-0.6c0-0.3-0.1-0.5-0.2-0.7
		s-0.3-0.4-0.5-0.5c-0.1-0.1-0.3-0.1-0.5-0.1s-0.4,0-0.7,0h-0.4h-0.5V-27.2z"/>
	<path d="M45.5-26v-8.6h1.4v7.3H50v1.2H45.5z"/>
	<path d="M60.4-26l-1-2.2h-3.4l-1,2.2h-1.5l4.2-8.9l4.1,8.9H60.4z M56.6-29.4H59l-0.9-2c-0.1-0.1-0.1-0.3-0.2-0.4s-0.1-0.3-0.2-0.5
		c0,0.2-0.1,0.4-0.1,0.5s-0.1,0.3-0.2,0.4L56.6-29.4z"/>
	<path d="M73.2-32.5c-0.4-0.3-0.8-0.6-1.3-0.8s-0.9-0.3-1.4-0.3c-0.9,0-1.7,0.3-2.3,0.9s-0.9,1.4-0.9,2.3c0,0.9,0.3,1.7,0.9,2.3
		s1.3,0.9,2.2,0.9c0.5,0,1-0.1,1.5-0.3s0.9-0.5,1.3-0.8v1.6c-0.4,0.3-0.8,0.5-1.2,0.6s-0.9,0.2-1.4,0.2c-0.7,0-1.3-0.1-1.8-0.3
		s-1-0.5-1.5-0.9c-0.4-0.4-0.7-0.9-1-1.5S66-29.6,66-30.3s0.1-1.2,0.3-1.8s0.5-1,1-1.5c0.4-0.4,0.9-0.7,1.5-1s1.1-0.3,1.8-0.3
		c0.5,0,1,0.1,1.4,0.2s0.9,0.4,1.3,0.7L73.2-32.5z"/>
	<path d="M78.6-26v-8.6H80v3.6l3.1-3.6h1.7l-3.4,3.8l3.8,4.8h-1.8L80-30.4v4.4H78.6z"/>
</g>
<g>
	<path d="M38.1,55l-2.8-6.4h-9.9L22.4,55h-4.3l12.1-26l12.1,26H38.1z M26.8,45.2h7l-2.6-5.7c-0.1-0.4-0.3-0.8-0.5-1.3
		c-0.2-0.5-0.3-1-0.5-1.6c-0.1,0.5-0.3,1.1-0.4,1.5c-0.2,0.5-0.3,0.9-0.5,1.3L26.8,45.2z"/>
	<path d="M67.1,43.4c-0.6-0.6-1.2-1.1-2-1.4c-0.8-0.3-1.6-0.5-2.5-0.5c-1.5,0-2.7,0.5-3.6,1.5c-0.9,1-1.4,2.3-1.4,3.9
		c0,1.7,0.5,3,1.4,4c0.9,1,2.2,1.4,3.8,1.4c0.9,0,1.7-0.2,2.4-0.5c0.7-0.3,1.3-0.8,1.9-1.5v4.3c-0.7,0.4-1.4,0.7-2.2,0.9
		c-0.8,0.2-1.6,0.3-2.5,0.3c-2.5,0-4.6-0.8-6.2-2.4c-1.6-1.6-2.4-3.7-2.4-6.3c0-2.6,0.8-4.7,2.5-6.3c1.7-1.6,3.8-2.4,6.5-2.4
		c0.8,0,1.6,0.1,2.3,0.2c0.7,0.2,1.4,0.4,2,0.8V43.4z"/>
	<path d="M93.5,43.4c-0.6-0.6-1.2-1.1-2-1.4c-0.8-0.3-1.6-0.5-2.5-0.5c-1.5,0-2.7,0.5-3.6,1.5c-0.9,1-1.4,2.3-1.4,3.9
		c0,1.7,0.5,3,1.4,4c0.9,1,2.2,1.4,3.8,1.4c0.9,0,1.7-0.2,2.4-0.5s1.3-0.8,1.9-1.5v4.3c-0.7,0.4-1.4,0.7-2.2,0.9
		c-0.8,0.2-1.6,0.3-2.5,0.3c-2.5,0-4.6-0.8-6.2-2.4c-1.6-1.6-2.4-3.7-2.4-6.3c0-2.6,0.8-4.7,2.5-6.3c1.7-1.6,3.8-2.4,6.5-2.4
		c0.8,0,1.6,0.1,2.3,0.2c0.7,0.2,1.4,0.4,2,0.8V43.4z"/>
	<path class="st1" d="M106.7,46.9c0-1.2,0.2-2.3,0.7-3.4s1.1-2,1.9-2.8c0.8-0.8,1.8-1.4,2.9-1.9c1.1-0.4,2.2-0.6,3.4-0.6
		c1.2,0,2.4,0.2,3.4,0.6c1.1,0.4,2,1.1,2.9,1.9c0.9,0.8,1.5,1.8,1.9,2.8c0.4,1,0.7,2.1,0.7,3.3c0,1.2-0.2,2.3-0.7,3.4
		s-1.1,2-1.9,2.8c-0.9,0.9-1.9,1.5-3,1.9c-1.1,0.4-2.2,0.7-3.4,0.7c-1.2,0-2.3-0.2-3.4-0.7c-1.1-0.4-2-1.1-2.9-1.9
		c-0.9-0.8-1.5-1.8-1.9-2.8C106.9,49.2,106.7,48.1,106.7,46.9z M120.6,47c0-1.5-0.5-2.8-1.5-3.8c-1-1-2.2-1.6-3.6-1.6
		c-1.4,0-2.6,0.5-3.5,1.6c-1,1-1.5,2.3-1.5,3.8s0.5,2.8,1.5,3.8c1,1,2.2,1.6,3.5,1.6c1.4,0,2.6-0.5,3.5-1.6
		C120.1,49.7,120.6,48.5,120.6,47z"/>
	<path d="M142.7,55H139V38.8h3.5v2.6c0.7-1.1,1.6-2,2.5-2.5c0.9-0.5,2-0.8,3.3-0.8c1.3,0,2.3,0.3,3.1,0.8c0.8,0.5,1.5,1.3,1.9,2.4
		c0.9-1.1,1.8-1.9,2.7-2.4c1-0.5,2.1-0.8,3.3-0.8c1.1,0,2,0.2,2.8,0.6c0.8,0.4,1.4,1,1.9,1.7c0.2,0.4,0.4,0.8,0.5,1.3
		c0.1,0.5,0.1,1.2,0.1,2.1v1.3V55H161v-8.3c0-2.2-0.2-3.6-0.7-4.3c-0.5-0.7-1.3-1-2.5-1c-1.5,0-2.5,0.5-3.1,1.4
		c-0.6,0.9-0.9,2.6-0.9,4.9V55H150v-8.3c0-2-0.2-3.4-0.7-4.2c-0.5-0.8-1.3-1.2-2.5-1.2c-0.7,0-1.4,0.2-2,0.5
		c-0.6,0.3-1.1,0.8-1.4,1.4c-0.2,0.4-0.4,0.8-0.5,1.4c-0.1,0.5-0.1,1.6-0.1,3V55z"/>
	<path d="M179.9,31.8c0-0.6,0.2-1.2,0.7-1.6c0.5-0.5,1-0.7,1.6-0.7c0.7,0,1.2,0.2,1.6,0.7c0.4,0.4,0.7,1,0.7,1.6
		c0,0.7-0.2,1.2-0.7,1.7c-0.4,0.5-1,0.7-1.6,0.7c-0.6,0-1.2-0.2-1.6-0.7C180.1,33,179.9,32.4,179.9,31.8z M180.4,55V38.8h3.7V55
		H180.4z"/>
</g>
</svg>
