<?xml version="1.0" encoding="utf-8"?>
<!-- Generator: Adobe Illustrator 19.0.0, SVG Export Plug-In . SVG Version: 6.00 Build 0)  -->
<svg version="1.1" id="Layer_1" xmlns="http://www.w3.org/2000/svg" xmlns:xlink="http://www.w3.org/1999/xlink" x="0px" y="0px"
	 viewBox="0 0 200 100" style="enable-background:new 0 0 200 100;" xml:space="preserve">
<style type="text/css">
	.st0{fill:#2E336A;}
	.st1{fill:#FFFFFF;}
</style>
<g>
	<path d="M35-26v-8.6h2.2c0.6,0,1.1,0,1.4,0.1s0.5,0.2,0.8,0.3c0.3,0.2,0.5,0.5,0.6,0.8s0.2,0.7,0.2,1c0,0.5-0.1,0.8-0.3,1.1
		s-0.5,0.5-0.9,0.6c0.5,0.1,0.9,0.3,1.2,0.7s0.4,0.9,0.4,1.4c0,0.3-0.1,0.7-0.2,1s-0.3,0.6-0.5,0.8c-0.2,0.2-0.5,0.4-0.9,0.5
		S38-26,37.2-26H35z M36.3-31h0.5c0.7,0,1.1-0.1,1.4-0.3s0.4-0.5,0.4-0.9c0-0.5-0.1-0.8-0.4-1s-0.7-0.3-1.4-0.3h-0.5V-31z
		 M36.3-27.2h0.5c0.5,0,0.9,0,1.1-0.1s0.4-0.1,0.6-0.2c0.2-0.1,0.3-0.3,0.4-0.5s0.1-0.4,0.1-0.6c0-0.3-0.1-0.5-0.2-0.7
		s-0.3-0.4-0.5-0.5c-0.1-0.1-0.3-0.1-0.5-0.1s-0.4,0-0.7,0h-0.4h-0.5V-27.2z"/>
	<path d="M45.5-26v-8.6h1.4v7.3H50v1.2H45.5z"/>
	<path d="M60.4-26l-1-2.2h-3.4l-1,2.2h-1.5l4.2-8.9l4.1,8.9H60.4z M56.6-29.4H59l-0.9-2c-0.1-0.1-0.1-0.3-0.2-0.4s-0.1-0.3-0.2-0.5
		c0,0.2-0.1,0.4-0.1,0.5s-0.1,0.3-0.2,0.4L56.6-29.4z"/>
	<path d="M73.2-32.5c-0.4-0.3-0.8-0.6-1.3-0.8s-0.9-0.3-1.4-0.3c-0.9,0-1.7,0.3-2.3,0.9s-0.9,1.4-0.9,2.3c0,0.9,0.3,1.7,0.9,2.3
		s1.3,0.9,2.2,0.9c0.5,0,1-0.1,1.5-0.3s0.9-0.5,1.3-0.8v1.6c-0.4,0.3-0.8,0.5-1.2,0.6s-0.9,0.2-1.4,0.2c-0.7,0-1.3-0.1-1.8-0.3
		s-1-0.5-1.5-0.9c-0.4-0.4-0.7-0.9-1-1.5S66-29.6,66-30.3s0.1-1.2,0.3-1.8s0.5-1,1-1.5c0.4-0.4,0.9-0.7,1.5-1s1.1-0.3,1.8-0.3
		c0.5,0,1,0.1,1.4,0.2s0.9,0.4,1.3,0.7L73.2-32.5z"/>
	<path d="M78.6-26v-8.6H80v3.6l3.1-3.6h1.7l-3.4,3.8l3.8,4.8h-1.8L80-30.4v4.4H78.6z"/>
</g>
<rect x="4.3" y="16.3" class="st0" width="55" height="54.7"/>
<g>
	<path d="M90.9,30.3c0-0.2-0.1-0.7-0.2-1.6c-0.1-0.7-0.2-1.3-0.2-1.8c-0.1,0.6-0.2,1.1-0.4,1.7c-0.2,0.6-0.4,1.2-0.7,1.7l-6.5,13.3
		l-6.5-13.6c-0.3-0.6-0.5-1.1-0.7-1.6c-0.2-0.5-0.4-1-0.5-1.6c0,0.5-0.1,1.1-0.1,1.6c-0.1,0.6-0.2,1.2-0.3,1.8l-2.7,12.3h-3.7
		L74,16.6l7.4,15.8c0.1,0.3,0.3,0.7,0.5,1.2s0.5,1.3,0.8,2.2c0.2-0.7,0.6-1.6,1.1-2.7c0.1-0.3,0.2-0.5,0.3-0.7l7.2-15.8l6.1,26.1
		h-3.8L90.9,30.3z"/>
	<path d="M110.7,19.5c0-0.6,0.2-1.2,0.7-1.6c0.5-0.5,1-0.7,1.6-0.7c0.7,0,1.2,0.2,1.6,0.7c0.4,0.4,0.7,1,0.7,1.6
		c0,0.7-0.2,1.2-0.7,1.7c-0.4,0.5-1,0.7-1.6,0.7c-0.6,0-1.2-0.2-1.6-0.7C110.9,20.6,110.7,20.1,110.7,19.5z M111.2,42.7V26.5h3.7
		v16.2H111.2z"/>
	<path d="M130.7,42.7V16.2h3.7v17l6.8-6.7h4.6l-7.3,7.1l8,9.1h-4.8l-7.3-8.4v8.4H130.7z"/>
	<path d="M175,35.1h-13c0.1,1.5,0.5,2.7,1.3,3.5c0.8,0.8,1.9,1.3,3.2,1.3c1.2,0,2.2-0.3,3-0.8c0.8-0.5,1.5-1.3,2.1-2.4l3.1,1.7
		c-0.9,1.6-2,2.8-3.4,3.6c-1.3,0.8-2.9,1.2-4.7,1.2c-2.6,0-4.7-0.8-6.2-2.4c-1.5-1.6-2.3-3.7-2.3-6.3c0-2.5,0.8-4.6,2.4-6.3
		c1.6-1.6,3.6-2.5,6.1-2.5c2.6,0,4.6,0.7,6.1,2.2c1.5,1.5,2.2,3.6,2.2,6.3V35.1z M171.1,32.6c-0.1-1.2-0.6-2-1.3-2.7
		c-0.7-0.6-1.8-0.9-3-0.9c-1.2,0-2.2,0.3-2.9,0.9c-0.7,0.6-1.3,1.5-1.6,2.7H171.1z"/>
</g>
<g>
	<path d="M67,57.1h-0.2c-1.1,0-2.1,0.3-2.9,0.8c0.2-1,0.4-1.6,0.8-1.8c0.3-0.3,1.1-0.4,2.2-0.4h0.4l0.4-1.9c0.5-2.5,1.3-4.3,2.4-5.4
		c1.4-1.4,2.9-2.1,4.5-2.1c0.6,0,1.2,0.1,1.7,0.4s0.7,0.7,0.7,1.1c0,0.4-0.5,0.9-1.4,1.5c-0.3-1.1-0.9-1.7-1.8-1.7
		c-1.7,0-2.9,1.8-3.6,5.5l-0.5,2.5h3.9c1.8,0,3.1-0.1,3.9-0.3c-0.4,0.8-0.8,1.3-1.2,1.4c-0.5,0.2-1.6,0.2-3.6,0.2h-3.4l-1.9,9.6
		c-0.2,0.9-0.3,1.7-0.3,2.4c0,0.4,0.1,0.8,0.3,1.2c-0.7,0.2-1.3,0.4-1.7,0.4c-0.6,0-0.9-0.3-0.9-1c0-0.5,0.1-1.4,0.4-2.7L67,57.1z"
		/>
	<path d="M83.3,59.1c-1,2-2.1,3.7-3.5,5.1s-2.6,2.1-3.7,2.1c-0.8,0-1.4-0.4-1.9-1.1c-0.5-0.7-0.7-1.6-0.7-2.8c0-2.3,0.7-4.4,2.1-6.2
		s3.1-2.7,4.9-2.7c1.1,0,2.4,0.4,3.7,1.1c0.2-0.7,1-1,2.4-1c0.1,0,0.2,0,0.4,0c-0.4,0.7-0.8,1.5-1,2.7l-0.2,1
		c-0.2,1.1-0.3,2.3-0.3,3.7c0,1.6,0.4,2.5,1.1,2.5c0.8,0,1.9-0.7,3.3-2c1.4-1.4,2.8-3.1,4.1-5.2l0.9,0.6c-1.4,2.5-3,4.5-4.8,6.2
		c-1.8,1.7-3.3,2.5-4.6,2.5c-1.6,0-2.4-1.3-2.4-4C83.2,60.8,83.2,60.1,83.3,59.1z M83.8,56.5c-1.6-1-2.9-1.5-3.9-1.5
		c-1.1,0-2.1,0.7-2.9,2.1s-1.2,3-1.2,4.9c0,1.5,0.5,2.3,1.5,2.3c1.1,0,3.1-2.4,6.2-7.1C83.4,57,83.5,56.8,83.8,56.5z"/>
	<path d="M98.5,62c0.3,0.6,0.4,1.1,0.4,1.6c0,1.1-0.5,2.1-1.4,3s-2.1,1.3-3.4,1.3c-0.8,0-1.4-0.2-1.9-0.6c-0.5-0.4-0.8-0.9-0.8-1.4
		c0-0.6,0.4-1.2,1.1-1.8c0.7-0.6,2-1.3,3.7-2.1l-0.9-1.4c-1.1-1.8-1.6-3.1-1.6-4.1c0-1.4,0.8-2.6,2.5-3.4c1,0.4,1.5,0.9,1.5,1.5
		c0,0.8-0.6,1.6-1.9,2.4l1.3,2.4l1,1.8c1.4-0.9,2.5-1.6,3.2-2.2s1.6-1.6,2.8-2.8l0.9,0.5C103.2,58.8,101.1,60.6,98.5,62z M96.6,63.1
		c-2.2,1.2-3.3,2.1-3.3,2.8c0,0.6,0.4,0.9,1.3,0.9c0.7,0,1.2-0.2,1.6-0.7s0.6-1,0.6-1.7C96.9,63.9,96.8,63.5,96.6,63.1z"/>
	<path d="M104.4,61.1c2.2-5,4.5-7.5,6.8-7.5c0.9,0,1.6,0.4,2,1.2c0.4,0.8,0.6,2,0.6,3.8l0,1.3c0,2.3,0.3,3.5,1,3.6
		c0.6,0,1.4-0.6,2.6-2s2.4-3.1,3.6-5.1l0.9,0.5c-1.2,2.4-2.6,4.4-4.1,6.1s-2.8,2.5-3.8,2.5c-0.9,0-1.6-0.4-2-1.3
		c-0.4-0.9-0.6-2.3-0.6-4.2v-1c0-2.3-0.4-3.4-1.2-3.4c-1.1,0-2.5,1.5-4.2,4.5c-1.7,3.1-2.6,4.9-2.6,5.4c0,0.2,0.1,0.4,0.2,0.6
		c-0.3,0.2-0.8,0.3-1.3,0.3c-0.7,0-1-0.3-1-0.9c0-0.4,0.2-1.7,0.7-3.7c0-0.1,0.1-0.6,0.3-1.4l2.3-11.6c-0.5,0.2-1,0.3-1.5,0.3
		c-1.5,0-2.2-0.9-2.2-2.6c0.7,0.5,1.6,0.8,2.5,0.8c1.3,0,2.6-0.3,3.9-0.8l-1.8,9.3c0,0.1-0.4,1.5-1,4.2
		C104.6,60,104.5,60.4,104.4,61.1z"/>
	<path d="M132.3,56.8c-1.7,3-3.4,5.3-5.1,7c-1.7,1.7-3.3,2.5-4.7,2.5c-0.8,0-1.5-0.3-2-0.8s-0.8-1.3-0.8-2.2c0-0.3,0.1-0.9,0.2-1.6
		l0.2-1.2c0.4-1.8,0.6-3,0.6-3.8c0-0.4-0.1-0.8-0.4-1c1-0.2,1.6-0.3,1.8-0.3c0.6,0,0.8,0.4,0.8,1.2c0,0.6-0.1,1.4-0.3,2.5l-0.4,2.2
		c-0.2,1.1-0.3,1.7-0.3,2.1c0,0.9,0.4,1.4,1.2,1.4c0.9,0,2.2-0.8,3.7-2.4c1.6-1.6,3.1-3.6,4.5-6L132.3,56.8z M122.3,51.2l0.2,0
		c0.5,0,1.2-0.3,2.2-0.8s1.7-1,2.2-1.5c-0.3,1-0.9,1.9-1.8,2.6c-1.3,1.1-2.1,1.6-2.6,1.6c-0.3,0-0.4-0.2-0.4-0.5
		C122,52,122.1,51.6,122.3,51.2z"/>
	<path d="M141.2,57.7c0,0.2,0,0.3,0,0.5c0,2.2-0.7,4.1-2.2,5.7s-3.2,2.4-5.2,2.4c-1.5,0-2.7-0.5-3.7-1.4s-1.4-2.2-1.4-3.7
		c0-1.7,0.6-3.3,1.8-4.5c1.2-1.3,2.7-1.9,4.3-1.9c0.3,0,0.5,0,0.8,0.1c-0.2-0.3-0.3-0.6-0.3-0.9c0-0.4,0.1-0.7,0.4-1
		c1.8,0.1,3.3,1.1,4.6,2.8c1.2,0.8,2.5,1.3,3.9,1.3c0.9,0,1.8-0.3,2.8-0.9l0.6,1c-1.2,0.8-2.4,1.2-3.7,1.2
		C143.2,58.2,142.2,58.1,141.2,57.7z M138.6,56.8c-0.6-0.2-1.2-0.5-1.7-0.9c-0.4-0.1-0.7-0.1-1-0.1c-1.3,0-2.4,0.6-3.4,1.7
		c-1,1.1-1.5,2.5-1.5,3.9c0,1.1,0.3,1.9,0.9,2.6c0.6,0.7,1.4,1,2.3,1c1.3,0,2.4-0.6,3.3-1.9c0.9-1.3,1.4-2.8,1.4-4.6
		C138.9,57.9,138.8,57.3,138.6,56.8z"/>
	<path d="M148.3,62c2.7-5.6,5-8.4,7.2-8.4c1.7,0,2.5,1.6,2.5,4.9l0,1.4c0,1.6,0.1,2.7,0.2,3.3s0.5,0.9,0.9,0.9
		c0.6,0,1.4-0.5,2.2-1.5c0.8-1,2.2-3.1,4-6.2l0.9,0.5c-1.6,3.1-3.1,5.4-4.4,6.9c-1.3,1.5-2.5,2.3-3.5,2.3c-1,0-1.6-0.5-2-1.4
		c-0.4-0.9-0.6-2.5-0.6-4.8l0-1c0-1.2-0.1-2.1-0.2-2.6s-0.4-0.7-0.8-0.7c-1,0-2.6,2-4.8,5.9c-0.5,1-0.9,1.6-1,1.9
		c-0.6,1-0.9,1.7-0.9,2.2c0,0.2,0,0.4,0.1,0.5c-0.4,0.2-0.8,0.3-1.1,0.3c-0.8,0-1.1-0.4-1.1-1.3c0-0.2,0.1-1.3,0.3-3.2l0.2-2.4
		c0.1-1,0.2-1.8,0.2-2.4c0-0.8-0.2-1.4-0.5-1.9c0.2-0.1,0.4-0.1,0.8-0.3c0.5-0.2,0.8-0.2,1.1-0.2c0.6,0,0.9,0.4,0.9,1.3
		c0,0.4-0.1,1.2-0.2,2.3c0,0.2,0,0.5-0.1,0.7L148.3,62z"/>
	<path d="M169.8,62c0.3,0.6,0.4,1.1,0.4,1.6c0,1.1-0.5,2.1-1.4,3s-2.1,1.3-3.4,1.3c-0.8,0-1.4-0.2-1.9-0.6c-0.5-0.4-0.8-0.9-0.8-1.4
		c0-0.6,0.4-1.2,1.1-1.8c0.7-0.6,2-1.3,3.7-2.1l-0.9-1.4c-1.1-1.8-1.6-3.1-1.6-4.1c0-1.4,0.8-2.6,2.5-3.4c1,0.4,1.5,0.9,1.5,1.5
		c0,0.8-0.6,1.6-1.9,2.4l1.3,2.4l1,1.8c1.4-0.9,2.5-1.6,3.2-2.2s1.6-1.6,2.8-2.8l0.9,0.5C174.5,58.8,172.4,60.6,169.8,62z
		 M167.9,63.1c-2.2,1.2-3.3,2.1-3.3,2.8c0,0.6,0.4,0.9,1.3,0.9c0.7,0,1.2-0.2,1.6-0.7s0.6-1,0.6-1.7C168.1,63.9,168,63.5,167.9,63.1
		z"/>
</g>
<rect x="18.7" y="32.2" class="st1" width="23" height="22.9"/>
</svg>
